<svg id="_Layer_" data-name="&lt;Layer&gt;" xmlns="http://www.w3.org/2000/svg" viewBox="0 0 141.79 93.89"><defs><style>.cls-1{fill:#c0ecf2;stroke-width:0.25px;}.cls-1,.cls-2,.cls-3{stroke:#069;}.cls-2{fill:#fff;}.cls-2,.cls-3{stroke-width:0.5px;}.cls-3{fill:none;}</style></defs><rect class="cls-1" x="0.13" y="0.13" width="141.54" height="93.64"/><path d="M16,82.08l4.47-7.87h1.24L23,82.08h-1l-.39-2.26H18.37l-1.26,2.26ZM18.82,79h2.61l-.31-2c-.12-.78-.19-1.44-.22-2a15.15,15.15,0,0,1-.78,1.61Z"/><path class="cls-2" d="M70.91,74.64a35.19,35.19,0,1,1-.13-55.49"/><path class="cls-2" d="M70.78,19.15a35.19,35.19,0,0,1,.13,55.49"/><path class="cls-3" d="M70.8,74.58a35.2,35.2,0,0,1,.1-55.35"/><path class="cls-3" d="M70.9,19.23a35.19,35.19,0,1,1-.1,55.35"/><path d="M117.06,82.08l1.65-7.87h2.44a7.47,7.47,0,0,1,1,.05,2.58,2.58,0,0,1,.89.32,1.55,1.55,0,0,1,.56.63,1.8,1.8,0,0,1,.2.87,2,2,0,0,1-.35,1.14,2.28,2.28,0,0,1-1.1.76,1.88,1.88,0,0,1,1,.63,1.6,1.6,0,0,1,.32,1,2.31,2.31,0,0,1-.38,1.25,2.57,2.57,0,0,1-1,.92,2.83,2.83,0,0,1-1.37.32Zm1.24-.89h1.79a5.12,5.12,0,0,0,1,0,2,2,0,0,0,.82-.29,1.47,1.47,0,0,0,.48-.54,1.53,1.53,0,0,0,.18-.71,1,1,0,0,0-.35-.84,2.16,2.16,0,0,0-1.31-.29h-2Zm.76-3.62h1.59a2.92,2.92,0,0,0,1.65-.36,1.26,1.26,0,0,0,.5-1.07,1,1,0,0,0-.16-.57.87.87,0,0,0-.41-.35,2.75,2.75,0,0,0-1-.11h-1.68Z"/><path d="M5.66,4h1l-1,4.84a5.21,5.21,0,0,0-.13.89,1.24,1.24,0,0,0,.5,1,2,2,0,0,0,1.26.39,2.38,2.38,0,0,0,1.12-.28,2.06,2.06,0,0,0,.82-.81,6.34,6.34,0,0,0,.54-1.72L10.72,4h1l-1,4.62a6.23,6.23,0,0,1-.65,1.87A3,3,0,0,1,9,11.59,3.2,3.2,0,0,1,7.38,12a3.85,3.85,0,0,1-1.54-.29,2.22,2.22,0,0,1-1-.82,2.24,2.24,0,0,1-.32-1.18,7.62,7.62,0,0,1,.22-1.43Z"/></svg>