<?xml version="1.0" encoding="UTF-8" standalone="no"?>
<!DOCTYPE svg PUBLIC "-//W3C//DTD SVG 1.0//EN" "http://www.w3.org/TR/2001/PR-SVG-20010719/DTD/svg10.dtd">
<svg width="16cm" height="18cm" viewBox="358 180 303 341" xmlns="http://www.w3.org/2000/svg" xmlns:xlink="http://www.w3.org/1999/xlink">
  <g>
    <ellipse style="fill: #ffffff" cx="420.816" cy="240.816" rx="24.1319" ry="24.1319"/>
    <ellipse style="fill: none; fill-opacity:0; stroke-width: 2; stroke: #000000" cx="420.816" cy="240.816" rx="24.1319" ry="24.1319"/>
    <text font-size="16.9333" style="fill: #000000;text-anchor:middle;font-family:serif;font-style:normal;font-weight:normal" x="420.816" y="245.983">
      <tspan x="420.816" y="245.983">A</tspan>
    </text>
  </g>
  <g>
    <ellipse style="fill: #ffffff" cx="420" cy="320" rx="23.2565" ry="23.2565"/>
    <ellipse style="fill: none; fill-opacity:0; stroke-width: 2; stroke: #000000" cx="420" cy="320" rx="23.2565" ry="23.2565"/>
    <text font-size="16.9333" style="fill: #000000;text-anchor:middle;font-family:serif;font-style:normal;font-weight:normal" x="420" y="325.167">
      <tspan x="420" y="325.167">B</tspan>
    </text>
  </g>
  <g>
    <ellipse style="fill: #ffffff" cx="420" cy="400" rx="23.4079" ry="23.4079"/>
    <ellipse style="fill: none; fill-opacity:0; stroke-width: 2; stroke: #000000" cx="420" cy="400" rx="23.4079" ry="23.4079"/>
    <text font-size="16.9333" style="fill: #000000;text-anchor:middle;font-family:serif;font-style:normal;font-weight:normal" x="420" y="405.167">
      <tspan x="420" y="405.167">C</tspan>
    </text>
  </g>
  <g>
    <ellipse style="fill: #ffffff" cx="420" cy="480" rx="23.6095" ry="23.6095"/>
    <ellipse style="fill: none; fill-opacity:0; stroke-width: 2; stroke: #000000" cx="420" cy="480" rx="23.6095" ry="23.6095"/>
    <text font-size="16.9333" style="fill: #000000;text-anchor:middle;font-family:serif;font-style:normal;font-weight:normal" x="420" y="485.167">
      <tspan x="420" y="485.167">D</tspan>
    </text>
  </g>
  <g>
    <ellipse style="fill: #ffffff" cx="600" cy="240" rx="22.7526" ry="22.7526"/>
    <ellipse style="fill: none; fill-opacity:0; stroke-width: 2; stroke: #000000" cx="600" cy="240" rx="22.7526" ry="22.7526"/>
    <text font-size="16.9333" style="fill: #000000;text-anchor:middle;font-family:serif;font-style:normal;font-weight:normal" x="600" y="245.167">
      <tspan x="600" y="245.167">1</tspan>
    </text>
  </g>
  <g>
    <ellipse style="fill: #ffffff" cx="600" cy="320" rx="22.7526" ry="22.7526"/>
    <ellipse style="fill: none; fill-opacity:0; stroke-width: 2; stroke: #000000" cx="600" cy="320" rx="22.7526" ry="22.7526"/>
    <text font-size="16.9333" style="fill: #000000;text-anchor:middle;font-family:serif;font-style:normal;font-weight:normal" x="600" y="325.167">
      <tspan x="600" y="325.167">2</tspan>
    </text>
  </g>
  <g>
    <ellipse style="fill: #ffffff" cx="600" cy="400" rx="22.7526" ry="22.7526"/>
    <ellipse style="fill: none; fill-opacity:0; stroke-width: 2; stroke: #000000" cx="600" cy="400" rx="22.7526" ry="22.7526"/>
    <text font-size="16.9333" style="fill: #000000;text-anchor:middle;font-family:serif;font-style:normal;font-weight:normal" x="600" y="405.167">
      <tspan x="600" y="405.167">3</tspan>
    </text>
  </g>
  <g>
    <ellipse style="fill: #ffffff" cx="600" cy="480" rx="22.7526" ry="22.7526"/>
    <ellipse style="fill: none; fill-opacity:0; stroke-width: 2; stroke: #000000" cx="600" cy="480" rx="22.7526" ry="22.7526"/>
    <text font-size="16.9333" style="fill: #000000;text-anchor:middle;font-family:serif;font-style:normal;font-weight:normal" x="600" y="485.167">
      <tspan x="600" y="485.167">4</tspan>
    </text>
  </g>
  <line style="fill: none; fill-opacity:0; stroke-width: 2; stroke: #000000" x1="442.133" y1="310.075" x2="578.979" y2="248.707"/>
  <line style="fill: none; fill-opacity:0; stroke-width: 2; stroke: #000000" x1="442.159" y1="329.849" x2="578.335" y2="390.371"/>
  <line style="fill: none; fill-opacity:0; stroke-width: 2; stroke: #000000" x1="442.308" y1="390.085" x2="578.335" y2="329.629"/>
  <line style="fill: none; fill-opacity:0; stroke-width: 2; stroke: #000000" x1="444.401" y1="400" x2="576.242" y2="400"/>
  <line style="fill: none; fill-opacity:0; stroke-width: 2; stroke: #000000" x1="438.397" y1="463.647" x2="582.334" y2="335.703"/>
  <line style="fill: none; fill-opacity:0; stroke-width: 2; stroke: #000000" x1="444.615" y1="480" x2="576.242" y2="480"/>
  <g>
    <ellipse style="fill: none; fill-opacity:0; stroke-width: 2; stroke-dasharray: 4; stroke: #000000" cx="420" cy="360" rx="60" ry="160"/>
    <text font-size="16.9333" style="fill: #000000;text-anchor:middle;font-family:serif;font-style:normal;font-weight:normal" x="420" y="365.167">
      <tspan x="420" y="365.167"></tspan>
    </text>
  </g>
  <g>
    <ellipse style="fill: none; fill-opacity:0; stroke-width: 2; stroke-dasharray: 4; stroke: #000000" cx="600" cy="360" rx="60" ry="160"/>
    <text font-size="16.9333" style="fill: #000000;text-anchor:middle;font-family:serif;font-style:normal;font-weight:normal" x="600" y="365.167">
      <tspan x="600" y="365.167"></tspan>
    </text>
  </g>
  <text font-size="16.9333" style="fill: #000000;text-anchor:middle;font-family:serif;font-style:normal;font-weight:normal" x="420" y="196">
    <tspan x="420" y="196">S</tspan>
  </text>
  <text font-size="16.9333" style="fill: #000000;text-anchor:middle;font-family:serif;font-style:normal;font-weight:normal" x="600" y="196">
    <tspan x="600" y="196">X</tspan>
  </text>
</svg>
