<svg id="_Layer_" data-name="&lt;Layer&gt;" xmlns="http://www.w3.org/2000/svg" viewBox="0 0 141.79 93.89"><defs><style>.cls-1{fill:#c0ecf2;}.cls-2,.cls-3{fill:none;stroke:#069;}.cls-2{stroke-width:0.25px;}.cls-3{stroke-width:0.5px;}</style></defs><path class="cls-1" d="M70.84,74.53a35.2,35.2,0,0,1,.1-55.35l-.12-.08A35.19,35.19,0,0,1,71,74.59Z"/><path d="M16.82,18l4.46-7.88h1.24L23.82,18h-1l-.38-2.27H19.23L18,18Zm2.86-3.08h2.61L22,13c-.11-.78-.19-1.43-.22-2A15.15,15.15,0,0,1,21,12.6Z"/><rect class="cls-2" x="0.13" y="0.13" width="141.54" height="93.64"/><path class="cls-3" d="M70.91,74.64a35.19,35.19,0,1,1-.13-55.49"/><path class="cls-3" d="M70.78,19.15a35.19,35.19,0,0,1,.13,55.49"/><path class="cls-3" d="M70.8,74.58a35.2,35.2,0,0,1,.1-55.35"/><path class="cls-3" d="M70.9,19.23a35.19,35.19,0,1,1-.1,55.35"/><path d="M118.69,18l1.65-7.88h2.44a6,6,0,0,1,1,.06,2.24,2.24,0,0,1,.88.32,1.55,1.55,0,0,1,.57.62,1.92,1.92,0,0,1,.19.87,1.89,1.89,0,0,1-.35,1.15,2.21,2.21,0,0,1-1.1.75,1.88,1.88,0,0,1,1,.63,1.6,1.6,0,0,1,.32,1,2.31,2.31,0,0,1-.38,1.25,2.41,2.41,0,0,1-1,.92,2.87,2.87,0,0,1-1.38.33Zm1.24-.89h1.79a6.47,6.47,0,0,0,1-.05,2.14,2.14,0,0,0,.81-.3,1.5,1.5,0,0,0,.49-.54,1.61,1.61,0,0,0,.17-.71,1,1,0,0,0-.34-.84,2.17,2.17,0,0,0-1.32-.29h-2Zm.76-3.62h1.59a2.89,2.89,0,0,0,1.65-.37,1.24,1.24,0,0,0,.5-1.06,1.06,1.06,0,0,0-.15-.58,1,1,0,0,0-.42-.35,3,3,0,0,0-1-.11H121.2Z"/></svg>